<svg width="24" height="24" viewBox="0 0 24 24" fill="none" xmlns="http://www.w3.org/2000/svg">
<path fill-rule="evenodd" clip-rule="evenodd" d="M12 4.5C7.85786 4.5 4.5 7.85786 4.5 12C4.5 16.1421 7.85786 19.5 12 19.5C16.1421 19.5 19.5 16.1421 19.5 12C19.5 7.85786 16.1421 4.5 12 4.5ZM3 12C3 7.02944 7.02944 3 12 3C16.9706 3 21 7.02944 21 12C21 16.9706 16.9706 21 12 21C7.02944 21 3 16.9706 3 12Z" fill="#FF703E"/>
<path fill-rule="evenodd" clip-rule="evenodd" d="M16.2428 7.75715C16.5357 8.05004 16.5357 8.52491 16.2428 8.81781L12.5303 12.5303C12.2374 12.8232 11.7626 12.8232 11.4697 12.5303C11.1768 12.2374 11.1768 11.7625 11.4697 11.4696L15.1822 7.75715C15.4751 7.46425 15.9499 7.46425 16.2428 7.75715Z" fill="#FF703E"/>
<path fill-rule="evenodd" clip-rule="evenodd" d="M9 0.75C9 0.335786 9.33579 0 9.75 0H14.25C14.6642 0 15 0.335786 15 0.75C15 1.16421 14.6642 1.5 14.25 1.5H9.75C9.33579 1.5 9 1.16421 9 0.75Z" fill="#FF703E"/>
</svg>
