<svg width="24" height="24" viewBox="0 0 24 24" fill="none" xmlns="http://www.w3.org/2000/svg">
<g clip-path="url(#clip0_912_17855)">
<path d="M5 21V18M18.5 21V18M4.5 11V11C3.67157 11 3 11.6703 3 12.4987C3 12.8915 3 13.3839 3 14C3 14.8271 3.1004 15.5316 3.23757 16.1082C3.40101 16.7952 3.48272 17.1387 4.02783 17.5694C4.57295 18 5.06521 18 6.04974 18H17.3377C18.6735 18 19.3414 18 19.8894 17.5613C20.4374 17.1225 20.5611 16.5705 20.8087 15.4664C20.9216 14.9629 21 14.4509 21 14C21 13.4605 21 12.9457 21 12.4996C21 11.6712 20.3284 11 19.5 11V11M4.5 11L5.74254 6.02986C6.10632 4.57474 6.28821 3.84718 6.83073 3.42359C7.37325 3 8.1232 3 9.62311 3H14.3769C15.8768 3 16.6267 3 17.1693 3.42359C17.7118 3.84718 17.8937 4.57474 18.2575 6.02986L19.5 11M4.5 11H19.5" stroke="#FF703E" stroke-width="2" stroke-linecap="round" stroke-linejoin="round"/>
<path d="M7.5 14C7.5 14.2761 7.27614 14.5 7 14.5C6.72386 14.5 6.5 14.2761 6.5 14C6.5 13.7239 6.72386 13.5 7 13.5C7.27614 13.5 7.5 13.7239 7.5 14ZM17.5 14C17.5 14.2761 17.2761 14.5 17 14.5C16.7239 14.5 16.5 14.2761 16.5 14C16.5 13.7239 16.7239 13.5 17 13.5C17.2761 13.5 17.5 13.7239 17.5 14Z" fill="white" stroke="#FF703E"/>
</g>
<defs>
<clipPath id="clip0_912_17855">
<rect width="24" height="24" fill="white"/>
</clipPath>
</defs>
</svg>
